{"glyphs":{"0":{"ha":694,"x_min":0,"x_max":608,"o":"m 260 260 l 260 347 l 347 347 l 347 260 l 260 260 m 434 0 l 347 0 l 260 0 l 174 0 l 87 0 l 87 87 l 0 87 l 0 174 l 0 260 l 0 347 l 0 434 l 0 521 l 87 521 l 87 608 l 174 608 l 260 608 l 347 608 l 434 608 l 521 608 l 521 521 l 608 521 l 608 434 l 608 347 l 608 260 l 608 174 l 608 87 l 521 87 l 521 0 l 434 0 m 347 174 l 434 174 l 434 260 l 434 347 l 434 434 l 347 434 l 260 434 l 174 434 l 174 347 l 174 260 l 174 174 l 260 174 l 347 174 z "},"1":{"ha":434,"x_min":0,"x_max":347,"o":"m 260 0 l 174 0 l 174 87 l 174 174 l 174 260 l 174 347 l 87 347 l 0 347 l 0 434 l 0 521 l 87 521 l 174 521 l 174 608 l 260 608 l 347 608 l 347 521 l 347 434 l 347 347 l 347 260 l 347 174 l 347 87 l 347 0 l 260 0 z "},"2":{"ha":694,"x_min":0,"x_max":608,"o":"m 521 0 l 434 0 l 347 0 l 260 0 l 174 0 l 87 0 l 0 0 l 0 87 l 0 174 l 87 174 l 174 174 l 174 260 l 260 260 l 260 347 l 347 347 l 434 347 l 434 434 l 347 434 l 260 434 l 174 434 l 174 347 l 87 347 l 0 347 l 0 434 l 0 521 l 87 521 l 87 608 l 174 608 l 260 608 l 347 608 l 434 608 l 521 608 l 521 521 l 608 521 l 608 434 l 608 347 l 608 260 l 521 260 l 434 260 l 434 174 l 521 174 l 608 174 l 608 87 l 608 0 l 521 0 z "},"3":{"ha":694,"x_min":0,"x_max":608,"o":"m 521 0 l 434 0 l 347 0 l 260 0 l 174 0 l 87 0 l 0 0 l 0 87 l 0 174 l 87 174 l 174 174 l 260 174 l 347 174 l 434 174 l 434 260 l 347 260 l 260 260 l 174 260 l 174 347 l 260 347 l 347 347 l 434 347 l 434 434 l 347 434 l 260 434 l 174 434 l 87 434 l 0 434 l 0 521 l 0 608 l 87 608 l 174 608 l 260 608 l 347 608 l 434 608 l 521 608 l 608 608 l 608 521 l 608 434 l 608 347 l 608 260 l 608 174 l 608 87 l 608 0 l 521 0 z "},"4":{"ha":694,"x_min":0,"x_max":608,"o":"m 347 0 l 260 0 l 260 87 l 260 174 l 174 174 l 87 174 l 0 174 l 0 260 l 0 347 l 0 434 l 0 521 l 0 608 l 87 608 l 174 608 l 174 521 l 174 434 l 174 347 l 260 347 l 260 434 l 260 521 l 347 521 l 434 521 l 434 434 l 434 347 l 521 347 l 608 347 l 608 260 l 608 174 l 521 174 l 434 174 l 434 87 l 434 0 l 347 0 z "},"5":{"ha":694,"x_min":0,"x_max":608,"o":"m 521 0 l 434 0 l 347 0 l 260 0 l 174 0 l 87 0 l 0 0 l 0 87 l 0 174 l 87 174 l 174 174 l 260 174 l 347 174 l 434 174 l 434 260 l 347 260 l 260 260 l 174 260 l 87 260 l 0 260 l 0 347 l 0 434 l 0 521 l 0 608 l 87 608 l 174 608 l 260 608 l 347 608 l 434 608 l 521 608 l 608 608 l 608 521 l 608 434 l 521 434 l 434 434 l 347 434 l 260 434 l 174 434 l 174 347 l 260 347 l 347 347 l 434 347 l 521 347 l 608 347 l 608 260 l 608 174 l 608 87 l 608 0 l 521 0 z "},"6":{"ha":694,"x_min":0,"x_max":608,"o":"m 521 0 l 434 0 l 347 0 l 260 0 l 174 0 l 87 0 l 0 0 l 0 87 l 0 174 l 0 260 l 0 347 l 0 434 l 0 521 l 0 608 l 87 608 l 174 608 l 260 608 l 347 608 l 434 608 l 521 608 l 608 608 l 608 521 l 608 434 l 521 434 l 434 434 l 347 434 l 260 434 l 174 434 l 174 347 l 260 347 l 347 347 l 434 347 l 521 347 l 608 347 l 608 260 l 608 174 l 608 87 l 608 0 l 521 0 m 347 174 l 434 174 l 434 260 l 347 260 l 260 260 l 174 260 l 174 174 l 260 174 l 347 174 z "},"7":{"ha":694,"x_min":0,"x_max":608,"o":"m 434 0 l 347 0 l 347 87 l 347 174 l 347 260 l 434 260 l 434 347 l 434 434 l 347 434 l 260 434 l 174 434 l 87 434 l 0 434 l 0 521 l 0 608 l 87 608 l 174 608 l 260 608 l 347 608 l 434 608 l 521 608 l 608 608 l 608 521 l 608 434 l 608 347 l 608 260 l 521 260 l 521 174 l 521 87 l 521 0 l 434 0 z "},"8":{"ha":694,"x_min":0,"x_max":608,"o":"m 434 0 l 347 0 l 260 0 l 174 0 l 87 0 l 87 87 l 0 87 l 0 174 l 0 260 l 87 260 l 87 347 l 0 347 l 0 434 l 0 521 l 87 521 l 87 608 l 174 608 l 260 608 l 347 608 l 434 608 l 521 608 l 521 521 l 608 521 l 608 434 l 608 347 l 521 347 l 521 260 l 608 260 l 608 174 l 608 87 l 521 87 l 521 0 l 434 0 m 347 174 l 434 174 l 434 260 l 347 260 l 260 260 l 174 260 l 174 174 l 260 174 l 347 174 m 347 347 l 434 347 l 434 434 l 347 434 l 260 434 l 174 434 l 174 347 l 260 347 l 347 347 z "},"9":{"ha":694,"x_min":0,"x_max":608,"o":"m 521 0 l 434 0 l 347 0 l 260 0 l 174 0 l 87 0 l 0 0 l 0 87 l 0 174 l 87 174 l 174 174 l 260 174 l 347 174 l 434 174 l 434 260 l 347 260 l 260 260 l 174 260 l 87 260 l 0 260 l 0 347 l 0 434 l 0 521 l 0 608 l 87 608 l 174 608 l 260 608 l 347 608 l 434 608 l 521 608 l 608 608 l 608 521 l 608 434 l 608 347 l 608 260 l 608 174 l 608 87 l 608 0 l 521 0 m 347 347 l 434 347 l 434 434 l 347 434 l 260 434 l 174 434 l 174 347 l 260 347 l 347 347 z "}," ":{"ha":434,"x_min":0,"x_max":0,"o":""},"!":{"ha":260,"x_min":0,"x_max":174,"o":"m 87 0 l 0 0 l 0 87 l 0 174 l 87 174 l 174 174 l 174 87 l 174 0 l 87 0 m 87 260 l 0 260 l 0 347 l 0 434 l 0 521 l 0 608 l 87 608 l 174 608 l 174 521 l 174 434 l 174 347 l 174 260 l 87 260 z "},"\"":{"ha":521,"x_min":0,"x_max":434,"o":"m 347 347 l 260 347 l 260 434 l 260 521 l 260 608 l 347 608 l 434 608 l 434 521 l 434 434 l 434 347 l 347 347 m 87 347 l 0 347 l 0 434 l 0 521 l 0 608 l 87 608 l 174 608 l 174 521 l 174 434 l 174 347 l 87 347 z "},"#":{"ha":608,"x_min":0,"x_max":521,"o":"m 347 87 l 347 174 l 260 174 l 174 174 l 174 87 l 87 87 l 87 174 l 0 174 l 0 260 l 87 260 l 87 347 l 87 434 l 0 434 l 0 521 l 87 521 l 87 608 l 174 608 l 174 521 l 260 521 l 347 521 l 347 608 l 434 608 l 434 521 l 521 521 l 521 434 l 434 434 l 434 347 l 434 260 l 521 260 l 521 174 l 434 174 l 434 87 l 347 87 m 260 260 l 347 260 l 347 347 l 347 434 l 260 434 l 174 434 l 174 347 l 174 260 l 260 260 z "},"$":{"ha":694,"x_min":0,"x_max":608,"o":"m 434 0 l 347 0 l 260 0 l 174 0 l 87 0 l 87 87 l 0 87 l 0 174 l 87 174 l 174 174 l 174 87 l 260 87 l 260 174 l 260 260 l 174 260 l 87 260 l 87 347 l 0 347 l 0 434 l 0 521 l 87 521 l 87 608 l 174 608 l 260 608 l 347 608 l 434 608 l 521 608 l 521 521 l 608 521 l 608 434 l 521 434 l 434 434 l 434 521 l 347 521 l 347 434 l 347 347 l 434 347 l 521 347 l 521 260 l 608 260 l 608 174 l 608 87 l 521 87 l 521 0 l 434 0 m 434 174 l 434 260 l 347 260 l 347 174 l 434 174 m 260 347 l 260 434 l 174 434 l 174 347 l 260 347 z "},"%":{"ha":694,"x_min":0,"x_max":608,"o":"m 174 0 l 174 87 l 174 174 l 260 174 l 260 87 l 260 0 l 174 0 m 521 87 l 434 87 l 434 174 l 434 260 l 521 260 l 608 260 l 608 174 l 608 87 l 521 87 m 260 174 l 260 260 l 260 347 l 347 347 l 347 260 l 347 174 l 260 174 m 87 260 l 0 260 l 0 347 l 0 434 l 87 434 l 174 434 l 174 347 l 174 260 l 87 260 m 347 347 l 347 434 l 347 521 l 434 521 l 434 434 l 434 347 l 347 347 z "},"&":{"ha":521,"x_min":0,"x_max":434,"o":"m 174 87 l 174 174 l 174 260 l 87 260 l 0 260 l 0 347 l 87 347 l 174 347 l 174 434 l 174 521 l 260 521 l 260 434 l 260 347 l 347 347 l 434 347 l 434 260 l 347 260 l 260 260 l 260 174 l 260 87 l 174 87 z "},"'":{"ha":174,"x_min":0,"x_max":87,"o":"m 0 434 l 0 521 l 0 608 l 87 608 l 87 521 l 87 434 l 0 434 z "},"(":{"ha":434,"x_min":0,"x_max":347,"o":"m 260 87 l 347 87 l 347 0 l 260 0 l 174 0 l 87 0 l 87 87 l 0 87 l 0 174 l 0 260 l 0 347 l 0 434 l 0 521 l 87 521 l 87 608 l 174 608 l 260 608 l 347 608 l 347 521 l 260 521 l 174 521 l 174 434 l 174 347 l 174 260 l 174 174 l 174 87 l 260 87 z "},")":{"ha":434,"x_min":0,"x_max":347,"o":"m 174 0 l 87 0 l 0 0 l 0 87 l 87 87 l 174 87 l 174 174 l 174 260 l 174 347 l 174 434 l 174 521 l 87 521 l 0 521 l 0 608 l 87 608 l 174 608 l 260 608 l 260 521 l 347 521 l 347 434 l 347 347 l 347 260 l 347 174 l 347 87 l 260 87 l 260 0 l 174 0 z "},"*":{"ha":347,"x_min":0,"x_max":260,"o":"m 87 347 l 87 434 l 0 434 l 0 521 l 87 521 l 87 608 l 174 608 l 174 521 l 260 521 l 260 434 l 174 434 l 174 347 l 87 347 z "},"+":{"ha":521,"x_min":0,"x_max":434,"o":"m 174 87 l 174 174 l 174 260 l 87 260 l 0 260 l 0 347 l 87 347 l 174 347 l 174 434 l 174 521 l 260 521 l 260 434 l 260 347 l 347 347 l 434 347 l 434 260 l 347 260 l 260 260 l 260 174 l 260 87 l 174 87 z "},",":{"ha":260,"x_min":0,"x_max":174,"o":"m 87 -174 l 0 -174 l 0 -87 l 0 0 l 0 87 l 87 87 l 174 87 l 174 0 l 174 -87 l 174 -174 l 87 -174 z "},"-":{"ha":434,"x_min":0,"x_max":347,"o":"m 260 174 l 174 174 l 87 174 l 0 174 l 0 260 l 0 347 l 87 347 l 174 347 l 260 347 l 347 347 l 347 260 l 347 174 l 260 174 z "},".":{"ha":260,"x_min":0,"x_max":174,"o":"m 87 0 l 0 0 l 0 87 l 0 174 l 87 174 l 174 174 l 174 87 l 174 0 l 87 0 z "},"/":{"ha":347,"x_min":0,"x_max":260,"o":"m 0 0 l 0 87 l 0 174 l 87 174 l 87 87 l 87 0 l 0 0 m 87 174 l 87 260 l 87 347 l 174 347 l 174 260 l 174 174 l 87 174 m 174 347 l 174 434 l 174 521 l 260 521 l 260 434 l 260 347 l 174 347 z "},":":{"ha":347,"x_min":87,"x_max":260,"o":"m 174 87 l 87 87 l 87 174 l 87 260 l 174 260 l 260 260 l 260 174 l 260 87 l 174 87 m 174 347 l 87 347 l 87 434 l 87 521 l 174 521 l 260 521 l 260 434 l 260 347 l 174 347 z "},";":{"ha":260,"x_min":0,"x_max":174,"o":"m 87 -174 l 0 -174 l 0 -87 l 0 0 l 0 87 l 87 87 l 174 87 l 174 0 l 174 -87 l 174 -174 l 87 -174 m 87 174 l 0 174 l 0 260 l 0 347 l 87 347 l 174 347 l 174 260 l 174 174 l 87 174 z "},"<":{"ha":347,"x_min":0,"x_max":260,"o":"m 174 87 l 174 174 l 260 174 l 260 87 l 174 87 m 174 174 l 87 174 l 87 260 l 174 260 l 174 174 m 87 260 l 0 260 l 0 347 l 87 347 l 87 260 m 87 347 l 87 434 l 174 434 l 174 347 l 87 347 m 174 434 l 174 521 l 260 521 l 260 434 l 174 434 z "},"=":{"ha":694,"x_min":0,"x_max":608,"o":"m 521 87 l 434 87 l 347 87 l 260 87 l 174 87 l 87 87 l 0 87 l 0 174 l 0 260 l 87 260 l 174 260 l 260 260 l 347 260 l 434 260 l 521 260 l 608 260 l 608 174 l 608 87 l 521 87 m 521 347 l 434 347 l 347 347 l 260 347 l 174 347 l 87 347 l 0 347 l 0 434 l 0 521 l 87 521 l 174 521 l 260 521 l 347 521 l 434 521 l 521 521 l 608 521 l 608 434 l 608 347 l 521 347 z "},">":{"ha":347,"x_min":0,"x_max":260,"o":"m 0 0 l 0 87 l 87 87 l 87 0 l 0 0 m 87 87 l 87 174 l 174 174 l 174 87 l 87 87 m 174 174 l 174 260 l 260 260 l 260 174 l 174 174 m 174 260 l 87 260 l 87 347 l 174 347 l 174 260 m 87 347 l 0 347 l 0 434 l 87 434 l 87 347 z "},"?":{"ha":608,"x_min":0,"x_max":521,"o":"m 260 87 l 347 87 l 347 0 l 260 0 l 174 0 l 174 87 l 260 87 m 260 260 l 347 260 l 347 174 l 260 174 l 174 174 l 174 260 l 260 260 m 347 260 l 347 347 l 347 434 l 347 521 l 434 521 l 521 521 l 521 434 l 521 347 l 521 260 l 434 260 l 347 260 m 87 347 l 0 347 l 0 434 l 0 521 l 87 521 l 174 521 l 174 434 l 174 347 l 87 347 m 347 521 l 260 521 l 174 521 l 174 608 l 260 608 l 347 608 l 347 521 z "},"@":{"ha":694,"x_min":0,"x_max":608,"o":"m 521 87 l 608 87 l 608 0 l 521 0 l 434 0 l 347 0 l 260 0 l 174 0 l 87 0 l 87 87 l 0 87 l 0 174 l 0 260 l 0 347 l 0 434 l 0 521 l 87 521 l 87 608 l 174 608 l 260 608 l 347 608 l 434 608 l 521 608 l 521 521 l 608 521 l 608 434 l 608 347 l 608 260 l 608 174 l 521 174 l 434 174 l 347 174 l 260 174 l 260 260 l 260 347 l 260 434 l 347 434 l 434 434 l 434 347 l 347 347 l 347 260 l 434 260 l 521 260 l 521 347 l 521 434 l 521 521 l 434 521 l 347 521 l 260 521 l 174 521 l 174 434 l 174 347 l 174 260 l 174 174 l 174 87 l 260 87 l 347 87 l 434 87 l 521 87 z "},"A":{"ha":694,"x_min":0,"x_max":608,"o":"m 521 0 l 434 0 l 434 87 l 434 174 l 347 174 l 260 174 l 174 174 l 174 87 l 174 0 l 87 0 l 0 0 l 0 87 l 0 174 l 0 260 l 0 347 l 0 434 l 0 521 l 87 521 l 87 608 l 174 608 l 260 608 l 347 608 l 434 608 l 521 608 l 521 521 l 608 521 l 608 434 l 608 347 l 608 260 l 608 174 l 608 87 l 608 0 l 521 0 m 347 347 l 434 347 l 434 434 l 347 434 l 260 434 l 174 434 l 174 347 l 260 347 l 347 347 z "},"B":{"ha":694,"x_min":0,"x_max":608,"o":"m 434 0 l 347 0 l 260 0 l 174 0 l 87 0 l 0 0 l 0 87 l 0 174 l 0 260 l 0 347 l 0 434 l 0 521 l 0 608 l 87 608 l 174 608 l 260 608 l 347 608 l 434 608 l 521 608 l 521 521 l 608 521 l 608 434 l 608 347 l 521 347 l 521 260 l 608 260 l 608 174 l 608 87 l 521 87 l 521 0 l 434 0 m 347 174 l 434 174 l 434 260 l 347 260 l 260 260 l 174 260 l 174 174 l 260 174 l 347 174 m 347 347 l 434 347 l 434 434 l 347 434 l 260 434 l 174 434 l 174 347 l 260 347 l 347 347 z "},"C":{"ha":694,"x_min":0,"x_max":608,"o":"m 521 0 l 434 0 l 347 0 l 260 0 l 174 0 l 87 0 l 87 87 l 0 87 l 0 174 l 0 260 l 0 347 l 0 434 l 0 521 l 87 521 l 87 608 l 174 608 l 260 608 l 347 608 l 434 608 l 521 608 l 608 608 l 608 521 l 608 434 l 521 434 l 434 434 l 347 434 l 260 434 l 174 434 l 174 347 l 174 260 l 174 174 l 260 174 l 347 174 l 434 174 l 521 174 l 608 174 l 608 87 l 608 0 l 521 0 z "},"D":{"ha":694,"x_min":0,"x_max":608,"o":"m 434 0 l 347 0 l 260 0 l 174 0 l 87 0 l 0 0 l 0 87 l 0 174 l 0 260 l 0 347 l 0 434 l 0 521 l 0 608 l 87 608 l 174 608 l 260 608 l 347 608 l 434 608 l 521 608 l 521 521 l 608 521 l 608 434 l 608 347 l 608 260 l 608 174 l 608 87 l 521 87 l 521 0 l 434 0 m 347 174 l 434 174 l 434 260 l 434 347 l 434 434 l 347 434 l 260 434 l 174 434 l 174 347 l 174 260 l 174 174 l 260 174 l 347 174 z "},"E":{"ha":694,"x_min":0,"x_max":608,"o":"m 521 0 l 434 0 l 347 0 l 260 0 l 174 0 l 87 0 l 0 0 l 0 87 l 0 174 l 0 260 l 0 347 l 0 434 l 0 521 l 0 608 l 87 608 l 174 608 l 260 608 l 347 608 l 434 608 l 521 608 l 608 608 l 608 521 l 608 434 l 521 434 l 434 434 l 347 434 l 260 434 l 174 434 l 174 347 l 260 347 l 347 347 l 434 347 l 434 260 l 347 260 l 260 260 l 174 260 l 174 174 l 260 174 l 347 174 l 434 174 l 521 174 l 608 174 l 608 87 l 608 0 l 521 0 z "},"F":{"ha":694,"x_min":0,"x_max":608,"o":"m 87 0 l 0 0 l 0 87 l 0 174 l 0 260 l 0 347 l 0 434 l 0 521 l 0 608 l 87 608 l 174 608 l 260 608 l 347 608 l 434 608 l 521 608 l 608 608 l 608 521 l 608 434 l 521 434 l 434 434 l 347 434 l 260 434 l 174 434 l 174 347 l 260 347 l 347 347 l 434 347 l 434 260 l 434 174 l 347 174 l 260 174 l 174 174 l 174 87 l 174 0 l 87 0 z "},"G":{"ha":694,"x_min":0,"x_max":608,"o":"m 521 0 l 434 0 l 347 0 l 260 0 l 174 0 l 87 0 l 87 87 l 0 87 l 0 174 l 0 260 l 0 347 l 0 434 l 0 521 l 87 521 l 87 608 l 174 608 l 260 608 l 347 608 l 434 608 l 521 608 l 608 608 l 608 521 l 608 434 l 521 434 l 434 434 l 347 434 l 260 434 l 174 434 l 174 347 l 174 260 l 174 174 l 260 174 l 347 174 l 434 174 l 434 260 l 347 260 l 260 260 l 260 347 l 347 347 l 434 347 l 521 347 l 608 347 l 608 260 l 608 174 l 608 87 l 608 0 l 521 0 z "},"H":{"ha":694,"x_min":0,"x_max":608,"o":"m 521 0 l 434 0 l 434 87 l 434 174 l 347 174 l 260 174 l 174 174 l 174 87 l 174 0 l 87 0 l 0 0 l 0 87 l 0 174 l 0 260 l 0 347 l 0 434 l 0 521 l 0 608 l 87 608 l 174 608 l 174 521 l 174 434 l 174 347 l 260 347 l 347 347 l 434 347 l 434 434 l 434 521 l 434 608 l 521 608 l 608 608 l 608 521 l 608 434 l 608 347 l 608 260 l 608 174 l 608 87 l 608 0 l 521 0 z "},"I":{"ha":260,"x_min":0,"x_max":174,"o":"m 87 0 l 0 0 l 0 87 l 0 174 l 0 260 l 0 347 l 0 434 l 0 521 l 0 608 l 87 608 l 174 608 l 174 521 l 174 434 l 174 347 l 174 260 l 174 174 l 174 87 l 174 0 l 87 0 z "},"J":{"ha":694,"x_min":0,"x_max":608,"o":"m 434 0 l 347 0 l 260 0 l 174 0 l 87 0 l 87 87 l 0 87 l 0 174 l 0 260 l 87 260 l 174 260 l 174 174 l 260 174 l 347 174 l 434 174 l 434 260 l 434 347 l 434 434 l 347 434 l 260 434 l 174 434 l 87 434 l 0 434 l 0 521 l 0 608 l 87 608 l 174 608 l 260 608 l 347 608 l 434 608 l 521 608 l 608 608 l 608 521 l 608 434 l 608 347 l 608 260 l 608 174 l 608 87 l 521 87 l 521 0 l 434 0 z "},"K":{"ha":694,"x_min":0,"x_max":608,"o":"m 521 0 l 434 0 l 347 0 l 347 87 l 260 87 l 260 174 l 174 174 l 174 87 l 174 0 l 87 0 l 0 0 l 0 87 l 0 174 l 0 260 l 0 347 l 0 434 l 0 521 l 0 608 l 87 608 l 174 608 l 174 521 l 174 434 l 260 434 l 260 521 l 347 521 l 347 608 l 434 608 l 521 608 l 608 608 l 608 521 l 521 521 l 521 434 l 434 434 l 434 347 l 347 347 l 347 260 l 434 260 l 434 174 l 521 174 l 521 87 l 608 87 l 608 0 l 521 0 z "},"L":{"ha":694,"x_min":0,"x_max":608,"o":"m 521 0 l 434 0 l 347 0 l 260 0 l 174 0 l 87 0 l 0 0 l 0 87 l 0 174 l 0 260 l 0 347 l 0 434 l 0 521 l 0 608 l 87 608 l 174 608 l 174 521 l 174 434 l 174 347 l 174 260 l 174 174 l 260 174 l 347 174 l 434 174 l 521 174 l 608 174 l 608 87 l 608 0 l 521 0 z "},"M":{"ha":694,"x_min":0,"x_max":608,"o":"m 260 260 l 260 347 l 174 347 l 174 260 l 174 174 l 174 87 l 174 0 l 87 0 l 0 0 l 0 87 l 0 174 l 0 260 l 0 347 l 0 434 l 0 521 l 0 608 l 87 608 l 174 608 l 174 521 l 260 521 l 260 434 l 347 434 l 347 521 l 434 521 l 434 608 l 521 608 l 608 608 l 608 521 l 608 434 l 608 347 l 608 260 l 608 174 l 608 87 l 608 0 l 521 0 l 434 0 l 434 87 l 434 174 l 434 260 l 434 347 l 347 347 l 347 260 l 260 260 z "},"N":{"ha":694,"x_min":0,"x_max":608,"o":"m 521 0 l 434 0 l 434 87 l 434 174 l 347 174 l 347 260 l 260 260 l 260 347 l 174 347 l 174 260 l 174 174 l 174 87 l 174 0 l 87 0 l 0 0 l 0 87 l 0 174 l 0 260 l 0 347 l 0 434 l 0 521 l 0 608 l 87 608 l 174 608 l 174 521 l 260 521 l 260 434 l 347 434 l 347 347 l 434 347 l 434 434 l 434 521 l 434 608 l 521 608 l 608 608 l 608 521 l 608 434 l 608 347 l 608 260 l 608 174 l 608 87 l 608 0 l 521 0 z "},"O":{"ha":694,"x_min":0,"x_max":608,"o":"m 434 0 l 347 0 l 260 0 l 174 0 l 87 0 l 87 87 l 0 87 l 0 174 l 0 260 l 0 347 l 0 434 l 0 521 l 87 521 l 87 608 l 174 608 l 260 608 l 347 608 l 434 608 l 521 608 l 521 521 l 608 521 l 608 434 l 608 347 l 608 260 l 608 174 l 608 87 l 521 87 l 521 0 l 434 0 m 347 174 l 434 174 l 434 260 l 434 347 l 434 434 l 347 434 l 260 434 l 174 434 l 174 347 l 174 260 l 174 174 l 260 174 l 347 174 z "},"P":{"ha":694,"x_min":0,"x_max":608,"o":"m 87 0 l 0 0 l 0 87 l 0 174 l 0 260 l 0 347 l 0 434 l 0 521 l 0 608 l 87 608 l 174 608 l 260 608 l 347 608 l 434 608 l 521 608 l 521 521 l 608 521 l 608 434 l 608 347 l 608 260 l 521 260 l 521 174 l 434 174 l 347 174 l 260 174 l 174 174 l 174 87 l 174 0 l 87 0 m 347 347 l 434 347 l 434 434 l 347 434 l 260 434 l 174 434 l 174 347 l 260 347 l 347 347 z "},"Q":{"ha":694,"x_min":0,"x_max":608,"o":"m 521 0 l 434 0 l 347 0 l 260 0 l 174 0 l 87 0 l 87 87 l 0 87 l 0 174 l 0 260 l 0 347 l 0 434 l 0 521 l 87 521 l 87 608 l 174 608 l 260 608 l 347 608 l 434 608 l 521 608 l 521 521 l 608 521 l 608 434 l 608 347 l 608 260 l 608 174 l 608 87 l 608 0 l 521 0 m 260 174 l 347 174 l 347 260 l 434 260 l 434 347 l 434 434 l 347 434 l 260 434 l 174 434 l 174 347 l 174 260 l 174 174 l 260 174 z "},"R":{"ha":694,"x_min":0,"x_max":608,"o":"m 521 0 l 434 0 l 434 87 l 434 174 l 347 174 l 260 174 l 174 174 l 174 87 l 174 0 l 87 0 l 0 0 l 0 87 l 0 174 l 0 260 l 0 347 l 0 434 l 0 521 l 0 608 l 87 608 l 174 608 l 260 608 l 347 608 l 434 608 l 521 608 l 521 521 l 608 521 l 608 434 l 608 347 l 608 260 l 521 260 l 521 174 l 608 174 l 608 87 l 608 0 l 521 0 m 347 347 l 434 347 l 434 434 l 347 434 l 260 434 l 174 434 l 174 347 l 260 347 l 347 347 z "},"S":{"ha":694,"x_min":0,"x_max":608,"o":"m 434 0 l 347 0 l 260 0 l 174 0 l 87 0 l 0 0 l 0 87 l 0 174 l 87 174 l 174 174 l 260 174 l 347 174 l 434 174 l 434 260 l 347 260 l 260 260 l 174 260 l 87 260 l 0 260 l 0 347 l 0 434 l 0 521 l 87 521 l 87 608 l 174 608 l 260 608 l 347 608 l 434 608 l 521 608 l 608 608 l 608 521 l 608 434 l 521 434 l 434 434 l 347 434 l 260 434 l 174 434 l 174 347 l 260 347 l 347 347 l 434 347 l 521 347 l 608 347 l 608 260 l 608 174 l 608 87 l 521 87 l 521 0 l 434 0 z "},"T":{"ha":608,"x_min":0,"x_max":521,"o":"m 260 0 l 174 0 l 174 87 l 174 174 l 174 260 l 174 347 l 174 434 l 87 434 l 0 434 l 0 521 l 0 608 l 87 608 l 174 608 l 260 608 l 347 608 l 434 608 l 521 608 l 521 521 l 521 434 l 434 434 l 347 434 l 347 347 l 347 260 l 347 174 l 347 87 l 347 0 l 260 0 z "},"U":{"ha":694,"x_min":0,"x_max":608,"o":"m 434 0 l 347 0 l 260 0 l 174 0 l 87 0 l 87 87 l 0 87 l 0 174 l 0 260 l 0 347 l 0 434 l 0 521 l 0 608 l 87 608 l 174 608 l 174 521 l 174 434 l 174 347 l 174 260 l 174 174 l 260 174 l 347 174 l 434 174 l 434 260 l 434 347 l 434 434 l 434 521 l 434 608 l 521 608 l 608 608 l 608 521 l 608 434 l 608 347 l 608 260 l 608 174 l 608 87 l 521 87 l 521 0 l 434 0 z "},"V":{"ha":694,"x_min":0,"x_max":608,"o":"m 260 0 l 260 87 l 174 87 l 174 174 l 174 260 l 87 260 l 87 347 l 87 434 l 0 434 l 0 521 l 0 608 l 87 608 l 174 608 l 174 521 l 174 434 l 260 434 l 260 347 l 260 260 l 347 260 l 347 347 l 347 434 l 434 434 l 434 521 l 434 608 l 521 608 l 608 608 l 608 521 l 608 434 l 521 434 l 521 347 l 521 260 l 434 260 l 434 174 l 434 87 l 347 87 l 347 0 l 260 0 z "},"W":{"ha":694,"x_min":0,"x_max":608,"o":"m 521 0 l 434 0 l 434 87 l 347 87 l 347 174 l 260 174 l 260 87 l 174 87 l 174 0 l 87 0 l 0 0 l 0 87 l 0 174 l 0 260 l 0 347 l 0 434 l 0 521 l 0 608 l 87 608 l 174 608 l 174 521 l 174 434 l 174 347 l 174 260 l 260 260 l 260 347 l 347 347 l 347 260 l 434 260 l 434 347 l 434 434 l 434 521 l 434 608 l 521 608 l 608 608 l 608 521 l 608 434 l 608 347 l 608 260 l 608 174 l 608 87 l 608 0 l 521 0 z "},"X":{"ha":694,"x_min":0,"x_max":608,"o":"m 521 0 l 434 0 l 434 87 l 347 87 l 347 174 l 260 174 l 260 87 l 174 87 l 174 0 l 87 0 l 0 0 l 0 87 l 0 174 l 87 174 l 87 260 l 174 260 l 174 347 l 87 347 l 87 434 l 0 434 l 0 521 l 0 608 l 87 608 l 174 608 l 174 521 l 260 521 l 260 434 l 347 434 l 347 521 l 434 521 l 434 608 l 521 608 l 608 608 l 608 521 l 608 434 l 521 434 l 521 347 l 434 347 l 434 260 l 521 260 l 521 174 l 608 174 l 608 87 l 608 0 l 521 0 z "},"Y":{"ha":694,"x_min":0,"x_max":608,"o":"m 347 0 l 260 0 l 174 0 l 174 87 l 174 174 l 174 260 l 87 260 l 87 347 l 0 347 l 0 434 l 0 521 l 0 608 l 87 608 l 174 608 l 174 521 l 174 434 l 260 434 l 260 347 l 347 347 l 347 434 l 434 434 l 434 521 l 434 608 l 521 608 l 608 608 l 608 521 l 608 434 l 608 347 l 521 347 l 521 260 l 434 260 l 434 174 l 434 87 l 434 0 l 347 0 z "},"Z":{"ha":694,"x_min":0,"x_max":608,"o":"m 521 0 l 434 0 l 347 0 l 260 0 l 174 0 l 87 0 l 0 0 l 0 87 l 0 174 l 87 174 l 87 260 l 174 260 l 174 347 l 260 347 l 347 347 l 347 434 l 260 434 l 174 434 l 87 434 l 0 434 l 0 521 l 0 608 l 87 608 l 174 608 l 260 608 l 347 608 l 434 608 l 521 608 l 608 608 l 608 521 l 608 434 l 608 347 l 521 347 l 434 347 l 434 260 l 347 260 l 347 174 l 434 174 l 521 174 l 608 174 l 608 87 l 608 0 l 521 0 z "},"[":{"ha":434,"x_min":0,"x_max":347,"o":"m 260 87 l 347 87 l 347 0 l 260 0 l 174 0 l 87 0 l 0 0 l 0 87 l 0 174 l 0 260 l 0 347 l 0 434 l 0 521 l 0 608 l 87 608 l 174 608 l 260 608 l 347 608 l 347 521 l 260 521 l 174 521 l 174 434 l 174 347 l 174 260 l 174 174 l 174 87 l 260 87 z "},"\\":{"ha":347,"x_min":0,"x_max":260,"o":"m 174 0 l 174 87 l 174 174 l 260 174 l 260 87 l 260 0 l 174 0 m 174 174 l 87 174 l 87 260 l 87 347 l 174 347 l 174 260 l 174 174 m 87 347 l 0 347 l 0 434 l 0 521 l 87 521 l 87 434 l 87 347 z "},"]":{"ha":434,"x_min":0,"x_max":347,"o":"m 260 0 l 174 0 l 87 0 l 0 0 l 0 87 l 87 87 l 174 87 l 174 174 l 174 260 l 174 347 l 174 434 l 174 521 l 87 521 l 0 521 l 0 608 l 87 608 l 174 608 l 260 608 l 347 608 l 347 521 l 347 434 l 347 347 l 347 260 l 347 174 l 347 87 l 347 0 l 260 0 z "},"^":{"ha":434,"x_min":0,"x_max":347,"o":"m 260 434 l 260 521 l 347 521 l 347 434 l 260 434 m 0 434 l 0 521 l 87 521 l 87 434 l 0 434 m 260 521 l 174 521 l 87 521 l 87 608 l 174 608 l 260 608 l 260 521 z "},"_":{"ha":521,"x_min":0,"x_max":434,"o":"m 347 87 l 434 87 l 434 0 l 347 0 l 260 0 l 174 0 l 87 0 l 0 0 l 0 87 l 87 87 l 174 87 l 260 87 l 347 87 z "},"`":{"ha":174,"x_min":0,"x_max":87,"o":"m 0 434 l 0 521 l 0 608 l 87 608 l 87 521 l 87 434 l 0 434 z "},"a":{"ha":694,"x_min":0,"x_max":608,"o":"m 521 0 l 434 0 l 434 87 l 434 174 l 347 174 l 260 174 l 174 174 l 174 87 l 174 0 l 87 0 l 0 0 l 0 87 l 0 174 l 0 260 l 0 347 l 0 434 l 0 521 l 87 521 l 87 608 l 174 608 l 260 608 l 347 608 l 434 608 l 521 608 l 521 521 l 608 521 l 608 434 l 608 347 l 608 260 l 608 174 l 608 87 l 608 0 l 521 0 m 347 347 l 434 347 l 434 434 l 347 434 l 260 434 l 174 434 l 174 347 l 260 347 l 347 347 z "},"b":{"ha":694,"x_min":0,"x_max":608,"o":"m 434 0 l 347 0 l 260 0 l 174 0 l 87 0 l 0 0 l 0 87 l 0 174 l 0 260 l 0 347 l 0 434 l 0 521 l 0 608 l 87 608 l 174 608 l 260 608 l 347 608 l 434 608 l 521 608 l 521 521 l 608 521 l 608 434 l 608 347 l 521 347 l 521 260 l 608 260 l 608 174 l 608 87 l 521 87 l 521 0 l 434 0 m 347 174 l 434 174 l 434 260 l 347 260 l 260 260 l 174 260 l 174 174 l 260 174 l 347 174 m 347 347 l 434 347 l 434 434 l 347 434 l 260 434 l 174 434 l 174 347 l 260 347 l 347 347 z "},"c":{"ha":694,"x_min":0,"x_max":608,"o":"m 521 0 l 434 0 l 347 0 l 260 0 l 174 0 l 87 0 l 87 87 l 0 87 l 0 174 l 0 260 l 0 347 l 0 434 l 0 521 l 87 521 l 87 608 l 174 608 l 260 608 l 347 608 l 434 608 l 521 608 l 608 608 l 608 521 l 608 434 l 521 434 l 434 434 l 347 434 l 260 434 l 174 434 l 174 347 l 174 260 l 174 174 l 260 174 l 347 174 l 434 174 l 521 174 l 608 174 l 608 87 l 608 0 l 521 0 z "},"d":{"ha":694,"x_min":0,"x_max":608,"o":"m 434 0 l 347 0 l 260 0 l 174 0 l 87 0 l 0 0 l 0 87 l 0 174 l 0 260 l 0 347 l 0 434 l 0 521 l 0 608 l 87 608 l 174 608 l 260 608 l 347 608 l 434 608 l 521 608 l 521 521 l 608 521 l 608 434 l 608 347 l 608 260 l 608 174 l 608 87 l 521 87 l 521 0 l 434 0 m 347 174 l 434 174 l 434 260 l 434 347 l 434 434 l 347 434 l 260 434 l 174 434 l 174 347 l 174 260 l 174 174 l 260 174 l 347 174 z "},"e":{"ha":694,"x_min":0,"x_max":608,"o":"m 521 0 l 434 0 l 347 0 l 260 0 l 174 0 l 87 0 l 0 0 l 0 87 l 0 174 l 0 260 l 0 347 l 0 434 l 0 521 l 0 608 l 87 608 l 174 608 l 260 608 l 347 608 l 434 608 l 521 608 l 608 608 l 608 521 l 608 434 l 521 434 l 434 434 l 347 434 l 260 434 l 174 434 l 174 347 l 260 347 l 347 347 l 434 347 l 434 260 l 347 260 l 260 260 l 174 260 l 174 174 l 260 174 l 347 174 l 434 174 l 521 174 l 608 174 l 608 87 l 608 0 l 521 0 z "},"f":{"ha":694,"x_min":0,"x_max":608,"o":"m 87 0 l 0 0 l 0 87 l 0 174 l 0 260 l 0 347 l 0 434 l 0 521 l 0 608 l 87 608 l 174 608 l 260 608 l 347 608 l 434 608 l 521 608 l 608 608 l 608 521 l 608 434 l 521 434 l 434 434 l 347 434 l 260 434 l 174 434 l 174 347 l 260 347 l 347 347 l 434 347 l 434 260 l 434 174 l 347 174 l 260 174 l 174 174 l 174 87 l 174 0 l 87 0 z "},"g":{"ha":694,"x_min":0,"x_max":608,"o":"m 521 0 l 434 0 l 347 0 l 260 0 l 174 0 l 87 0 l 87 87 l 0 87 l 0 174 l 0 260 l 0 347 l 0 434 l 0 521 l 87 521 l 87 608 l 174 608 l 260 608 l 347 608 l 434 608 l 521 608 l 608 608 l 608 521 l 608 434 l 521 434 l 434 434 l 347 434 l 260 434 l 174 434 l 174 347 l 174 260 l 174 174 l 260 174 l 347 174 l 434 174 l 434 260 l 347 260 l 260 260 l 260 347 l 347 347 l 434 347 l 521 347 l 608 347 l 608 260 l 608 174 l 608 87 l 608 0 l 521 0 z "},"h":{"ha":694,"x_min":0,"x_max":608,"o":"m 521 0 l 434 0 l 434 87 l 434 174 l 347 174 l 260 174 l 174 174 l 174 87 l 174 0 l 87 0 l 0 0 l 0 87 l 0 174 l 0 260 l 0 347 l 0 434 l 0 521 l 0 608 l 87 608 l 174 608 l 174 521 l 174 434 l 174 347 l 260 347 l 347 347 l 434 347 l 434 434 l 434 521 l 434 608 l 521 608 l 608 608 l 608 521 l 608 434 l 608 347 l 608 260 l 608 174 l 608 87 l 608 0 l 521 0 z "},"i":{"ha":260,"x_min":0,"x_max":174,"o":"m 87 0 l 0 0 l 0 87 l 0 174 l 0 260 l 0 347 l 0 434 l 0 521 l 0 608 l 87 608 l 174 608 l 174 521 l 174 434 l 174 347 l 174 260 l 174 174 l 174 87 l 174 0 l 87 0 z "},"j":{"ha":694,"x_min":0,"x_max":608,"o":"m 434 0 l 347 0 l 260 0 l 174 0 l 87 0 l 87 87 l 0 87 l 0 174 l 0 260 l 87 260 l 174 260 l 174 174 l 260 174 l 347 174 l 434 174 l 434 260 l 434 347 l 434 434 l 347 434 l 260 434 l 174 434 l 87 434 l 0 434 l 0 521 l 0 608 l 87 608 l 174 608 l 260 608 l 347 608 l 434 608 l 521 608 l 608 608 l 608 521 l 608 434 l 608 347 l 608 260 l 608 174 l 608 87 l 521 87 l 521 0 l 434 0 z "},"k":{"ha":694,"x_min":0,"x_max":608,"o":"m 521 0 l 434 0 l 347 0 l 347 87 l 260 87 l 260 174 l 174 174 l 174 87 l 174 0 l 87 0 l 0 0 l 0 87 l 0 174 l 0 260 l 0 347 l 0 434 l 0 521 l 0 608 l 87 608 l 174 608 l 174 521 l 174 434 l 260 434 l 260 521 l 347 521 l 347 608 l 434 608 l 521 608 l 608 608 l 608 521 l 521 521 l 521 434 l 434 434 l 434 347 l 347 347 l 347 260 l 434 260 l 434 174 l 521 174 l 521 87 l 608 87 l 608 0 l 521 0 z "},"l":{"ha":694,"x_min":0,"x_max":608,"o":"m 521 0 l 434 0 l 347 0 l 260 0 l 174 0 l 87 0 l 0 0 l 0 87 l 0 174 l 0 260 l 0 347 l 0 434 l 0 521 l 0 608 l 87 608 l 174 608 l 174 521 l 174 434 l 174 347 l 174 260 l 174 174 l 260 174 l 347 174 l 434 174 l 521 174 l 608 174 l 608 87 l 608 0 l 521 0 z "},"m":{"ha":694,"x_min":0,"x_max":608,"o":"m 260 260 l 260 347 l 174 347 l 174 260 l 174 174 l 174 87 l 174 0 l 87 0 l 0 0 l 0 87 l 0 174 l 0 260 l 0 347 l 0 434 l 0 521 l 0 608 l 87 608 l 174 608 l 174 521 l 260 521 l 260 434 l 347 434 l 347 521 l 434 521 l 434 608 l 521 608 l 608 608 l 608 521 l 608 434 l 608 347 l 608 260 l 608 174 l 608 87 l 608 0 l 521 0 l 434 0 l 434 87 l 434 174 l 434 260 l 434 347 l 347 347 l 347 260 l 260 260 z "},"n":{"ha":694,"x_min":0,"x_max":608,"o":"m 521 0 l 434 0 l 434 87 l 434 174 l 347 174 l 347 260 l 260 260 l 260 347 l 174 347 l 174 260 l 174 174 l 174 87 l 174 0 l 87 0 l 0 0 l 0 87 l 0 174 l 0 260 l 0 347 l 0 434 l 0 521 l 0 608 l 87 608 l 174 608 l 174 521 l 260 521 l 260 434 l 347 434 l 347 347 l 434 347 l 434 434 l 434 521 l 434 608 l 521 608 l 608 608 l 608 521 l 608 434 l 608 347 l 608 260 l 608 174 l 608 87 l 608 0 l 521 0 z "},"o":{"ha":694,"x_min":0,"x_max":608,"o":"m 434 0 l 347 0 l 260 0 l 174 0 l 87 0 l 87 87 l 0 87 l 0 174 l 0 260 l 0 347 l 0 434 l 0 521 l 87 521 l 87 608 l 174 608 l 260 608 l 347 608 l 434 608 l 521 608 l 521 521 l 608 521 l 608 434 l 608 347 l 608 260 l 608 174 l 608 87 l 521 87 l 521 0 l 434 0 m 347 174 l 434 174 l 434 260 l 434 347 l 434 434 l 347 434 l 260 434 l 174 434 l 174 347 l 174 260 l 174 174 l 260 174 l 347 174 z "},"p":{"ha":694,"x_min":0,"x_max":608,"o":"m 87 0 l 0 0 l 0 87 l 0 174 l 0 260 l 0 347 l 0 434 l 0 521 l 0 608 l 87 608 l 174 608 l 260 608 l 347 608 l 434 608 l 521 608 l 521 521 l 608 521 l 608 434 l 608 347 l 608 260 l 521 260 l 521 174 l 434 174 l 347 174 l 260 174 l 174 174 l 174 87 l 174 0 l 87 0 m 347 347 l 434 347 l 434 434 l 347 434 l 260 434 l 174 434 l 174 347 l 260 347 l 347 347 z "},"q":{"ha":694,"x_min":0,"x_max":608,"o":"m 521 0 l 434 0 l 434 87 l 347 87 l 347 0 l 260 0 l 174 0 l 87 0 l 87 87 l 0 87 l 0 174 l 0 260 l 0 347 l 0 434 l 0 521 l 87 521 l 87 608 l 174 608 l 260 608 l 347 608 l 434 608 l 521 608 l 521 521 l 608 521 l 608 434 l 608 347 l 608 260 l 608 174 l 521 174 l 521 87 l 608 87 l 608 0 l 521 0 m 260 174 l 347 174 l 347 260 l 434 260 l 434 347 l 434 434 l 347 434 l 260 434 l 174 434 l 174 347 l 174 260 l 174 174 l 260 174 z "},"r":{"ha":694,"x_min":0,"x_max":608,"o":"m 521 0 l 434 0 l 434 87 l 434 174 l 347 174 l 260 174 l 174 174 l 174 87 l 174 0 l 87 0 l 0 0 l 0 87 l 0 174 l 0 260 l 0 347 l 0 434 l 0 521 l 0 608 l 87 608 l 174 608 l 260 608 l 347 608 l 434 608 l 521 608 l 521 521 l 608 521 l 608 434 l 608 347 l 608 260 l 521 260 l 521 174 l 608 174 l 608 87 l 608 0 l 521 0 m 347 347 l 434 347 l 434 434 l 347 434 l 260 434 l 174 434 l 174 347 l 260 347 l 347 347 z "},"s":{"ha":694,"x_min":0,"x_max":608,"o":"m 434 0 l 347 0 l 260 0 l 174 0 l 87 0 l 0 0 l 0 87 l 0 174 l 87 174 l 174 174 l 260 174 l 347 174 l 434 174 l 434 260 l 347 260 l 260 260 l 174 260 l 87 260 l 0 260 l 0 347 l 0 434 l 0 521 l 87 521 l 87 608 l 174 608 l 260 608 l 347 608 l 434 608 l 521 608 l 608 608 l 608 521 l 608 434 l 521 434 l 434 434 l 347 434 l 260 434 l 174 434 l 174 347 l 260 347 l 347 347 l 434 347 l 521 347 l 608 347 l 608 260 l 608 174 l 608 87 l 521 87 l 521 0 l 434 0 z "},"t":{"ha":608,"x_min":0,"x_max":521,"o":"m 260 0 l 174 0 l 174 87 l 174 174 l 174 260 l 174 347 l 174 434 l 87 434 l 0 434 l 0 521 l 0 608 l 87 608 l 174 608 l 260 608 l 347 608 l 434 608 l 521 608 l 521 521 l 521 434 l 434 434 l 347 434 l 347 347 l 347 260 l 347 174 l 347 87 l 347 0 l 260 0 z "},"u":{"ha":694,"x_min":0,"x_max":608,"o":"m 434 0 l 347 0 l 260 0 l 174 0 l 87 0 l 87 87 l 0 87 l 0 174 l 0 260 l 0 347 l 0 434 l 0 521 l 0 608 l 87 608 l 174 608 l 174 521 l 174 434 l 174 347 l 174 260 l 174 174 l 260 174 l 347 174 l 434 174 l 434 260 l 434 347 l 434 434 l 434 521 l 434 608 l 521 608 l 608 608 l 608 521 l 608 434 l 608 347 l 608 260 l 608 174 l 608 87 l 521 87 l 521 0 l 434 0 z "},"v":{"ha":694,"x_min":0,"x_max":608,"o":"m 260 0 l 260 87 l 174 87 l 174 174 l 174 260 l 87 260 l 87 347 l 87 434 l 0 434 l 0 521 l 0 608 l 87 608 l 174 608 l 174 521 l 174 434 l 260 434 l 260 347 l 260 260 l 347 260 l 347 347 l 347 434 l 434 434 l 434 521 l 434 608 l 521 608 l 608 608 l 608 521 l 608 434 l 521 434 l 521 347 l 521 260 l 434 260 l 434 174 l 434 87 l 347 87 l 347 0 l 260 0 z "},"w":{"ha":694,"x_min":0,"x_max":608,"o":"m 521 0 l 434 0 l 434 87 l 347 87 l 347 174 l 260 174 l 260 87 l 174 87 l 174 0 l 87 0 l 0 0 l 0 87 l 0 174 l 0 260 l 0 347 l 0 434 l 0 521 l 0 608 l 87 608 l 174 608 l 174 521 l 174 434 l 174 347 l 174 260 l 260 260 l 260 347 l 347 347 l 347 260 l 434 260 l 434 347 l 434 434 l 434 521 l 434 608 l 521 608 l 608 608 l 608 521 l 608 434 l 608 347 l 608 260 l 608 174 l 608 87 l 608 0 l 521 0 z "},"x":{"ha":694,"x_min":0,"x_max":608,"o":"m 521 0 l 434 0 l 434 87 l 347 87 l 347 174 l 260 174 l 260 87 l 174 87 l 174 0 l 87 0 l 0 0 l 0 87 l 0 174 l 87 174 l 87 260 l 174 260 l 174 347 l 87 347 l 87 434 l 0 434 l 0 521 l 0 608 l 87 608 l 174 608 l 174 521 l 260 521 l 260 434 l 347 434 l 347 521 l 434 521 l 434 608 l 521 608 l 608 608 l 608 521 l 608 434 l 521 434 l 521 347 l 434 347 l 434 260 l 521 260 l 521 174 l 608 174 l 608 87 l 608 0 l 521 0 z "},"y":{"ha":608,"x_min":0,"x_max":521,"o":"m 260 0 l 174 0 l 174 87 l 174 174 l 174 260 l 87 260 l 87 347 l 0 347 l 0 434 l 0 521 l 0 608 l 87 608 l 174 608 l 174 521 l 174 434 l 260 434 l 347 434 l 347 521 l 347 608 l 434 608 l 521 608 l 521 521 l 521 434 l 521 347 l 434 347 l 434 260 l 347 260 l 347 174 l 347 87 l 347 0 l 260 0 z "},"z":{"ha":694,"x_min":0,"x_max":608,"o":"m 521 0 l 434 0 l 347 0 l 260 0 l 174 0 l 87 0 l 0 0 l 0 87 l 0 174 l 87 174 l 87 260 l 174 260 l 174 347 l 260 347 l 347 347 l 347 434 l 260 434 l 174 434 l 87 434 l 0 434 l 0 521 l 0 608 l 87 608 l 174 608 l 260 608 l 347 608 l 434 608 l 521 608 l 608 608 l 608 521 l 608 434 l 608 347 l 521 347 l 434 347 l 434 260 l 347 260 l 347 174 l 434 174 l 521 174 l 608 174 l 608 87 l 608 0 l 521 0 z "},"{":{"ha":521,"x_min":0,"x_max":434,"o":"m 347 87 l 434 87 l 434 0 l 347 0 l 260 0 l 174 0 l 174 87 l 87 87 l 87 174 l 87 260 l 0 260 l 0 347 l 87 347 l 87 434 l 87 521 l 174 521 l 174 608 l 260 608 l 347 608 l 434 608 l 434 521 l 347 521 l 260 521 l 260 434 l 260 347 l 260 260 l 260 174 l 260 87 l 347 87 z "},"|":{"ha":174,"x_min":0,"x_max":87,"o":"m 0 0 l 0 87 l 0 174 l 0 260 l 0 347 l 0 434 l 0 521 l 0 608 l 87 608 l 87 521 l 87 434 l 87 347 l 87 260 l 87 174 l 87 87 l 87 0 l 0 0 z "},"}":{"ha":521,"x_min":0,"x_max":434,"o":"m 174 0 l 87 0 l 0 0 l 0 87 l 87 87 l 174 87 l 174 174 l 174 260 l 174 347 l 174 434 l 174 521 l 87 521 l 0 521 l 0 608 l 87 608 l 174 608 l 260 608 l 260 521 l 347 521 l 347 434 l 347 347 l 434 347 l 434 260 l 347 260 l 347 174 l 347 87 l 260 87 l 260 0 l 174 0 z "},"~":{"ha":608,"x_min":0,"x_max":521,"o":"m 260 260 l 347 260 l 347 174 l 260 174 l 174 174 l 174 260 l 260 260 m 434 347 l 521 347 l 521 260 l 434 260 l 347 260 l 347 347 l 434 347 m 174 260 l 87 260 l 0 260 l 0 347 l 87 347 l 174 347 l 174 260 z "}," ":{"ha":434,"x_min":0,"x_max":0,"o":""},"¡":{"ha":260,"x_min":0,"x_max":174,"o":"m 87 -347 l 0 -347 l 0 -260 l 0 -174 l 0 -87 l 0 0 l 87 0 l 174 0 l 174 -87 l 174 -174 l 174 -260 l 174 -347 l 87 -347 m 87 87 l 0 87 l 0 174 l 0 260 l 87 260 l 174 260 l 174 174 l 174 87 l 87 87 z "},"¢":{"ha":521,"x_min":0,"x_max":434,"o":"m 174 0 l 174 87 l 87 87 l 87 174 l 174 174 l 260 174 l 347 174 l 434 174 l 434 87 l 347 87 l 260 87 l 260 0 l 174 0 m 87 174 l 0 174 l 0 260 l 0 347 l 0 434 l 87 434 l 87 347 l 87 260 l 87 174 m 347 521 l 434 521 l 434 434 l 347 434 l 260 434 l 174 434 l 87 434 l 87 521 l 174 521 l 174 608 l 260 608 l 260 521 l 347 521 z "},"£":{"ha":608,"x_min":0,"x_max":521,"o":"m 347 87 l 434 87 l 434 0 l 347 0 l 260 0 l 174 0 l 87 0 l 0 0 l 0 87 l 87 87 l 87 174 l 87 260 l 0 260 l 0 347 l 87 347 l 87 434 l 87 521 l 174 521 l 174 434 l 174 347 l 260 347 l 347 347 l 347 260 l 260 260 l 174 260 l 174 174 l 174 87 l 260 87 l 347 87 m 434 87 l 434 174 l 521 174 l 521 87 l 434 87 m 347 608 l 434 608 l 434 521 l 347 521 l 260 521 l 174 521 l 174 608 l 260 608 l 347 608 z "},"¤":{"ha":608,"x_min":0,"x_max":521,"o":"m 434 0 l 434 87 l 521 87 l 521 0 l 434 0 m 0 0 l 0 87 l 87 87 l 87 0 l 0 0 m 434 87 l 347 87 l 260 87 l 174 87 l 87 87 l 87 174 l 87 260 l 87 347 l 87 434 l 174 434 l 260 434 l 347 434 l 434 434 l 434 347 l 434 260 l 434 174 l 434 87 m 260 174 l 347 174 l 347 260 l 347 347 l 260 347 l 174 347 l 174 260 l 174 174 l 260 174 m 434 434 l 434 521 l 521 521 l 521 434 l 434 434 m 87 434 l 0 434 l 0 521 l 87 521 l 87 434 z "},"¥":{"ha":521,"x_min":0,"x_max":434,"o":"m 174 0 l 174 87 l 87 87 l 87 174 l 174 174 l 174 260 l 87 260 l 87 347 l 174 347 l 174 434 l 260 434 l 260 347 l 347 347 l 347 260 l 260 260 l 260 174 l 347 174 l 347 87 l 260 87 l 260 0 l 174 0 m 260 434 l 260 521 l 347 521 l 347 434 l 260 434 m 174 434 l 87 434 l 87 521 l 174 521 l 174 434 m 347 521 l 347 608 l 434 608 l 434 521 l 347 521 m 87 521 l 0 521 l 0 608 l 87 608 l 87 521 z "},"¦":{"ha":174,"x_min":0,"x_max":87,"o":"m 0 0 l 0 87 l 0 174 l 0 260 l 87 260 l 87 174 l 87 87 l 87 0 l 0 0 m 0 347 l 0 434 l 0 521 l 0 608 l 87 608 l 87 521 l 87 434 l 87 347 l 0 347 z "},"¨":{"ha":521,"x_min":0,"x_max":434,"o":"m 347 434 l 260 434 l 260 521 l 260 608 l 347 608 l 434 608 l 434 521 l 434 434 l 347 434 m 87 434 l 0 434 l 0 521 l 0 608 l 87 608 l 174 608 l 174 521 l 174 434 l 87 434 z "},"©":{"ha":521,"x_min":87,"x_max":434,"o":"m 347 260 l 347 347 l 434 347 l 434 260 l 347 260 m 87 260 l 87 347 l 174 347 l 174 260 l 87 260 m 347 0 l 260 0 l 174 0 l 87 0 l 87 87 l 87 174 l 174 174 l 174 87 l 260 87 l 347 87 l 347 174 l 434 174 l 434 87 l 434 0 l 347 0 z "},"€":{"ha":521,"x_min":0,"x_max":434,"o":"m 347 87 l 434 87 l 434 0 l 347 0 l 260 0 l 174 0 l 174 87 l 260 87 l 347 87 m 174 87 l 87 87 l 87 174 l 0 174 l 0 260 l 87 260 l 87 347 l 0 347 l 0 434 l 87 434 l 87 521 l 174 521 l 174 434 l 260 434 l 347 434 l 347 347 l 260 347 l 174 347 l 174 260 l 260 260 l 347 260 l 347 174 l 260 174 l 174 174 l 174 87 m 347 608 l 434 608 l 434 521 l 347 521 l 260 521 l 174 521 l 174 608 l 260 608 l 347 608 z "},"　":{"ha":1389,"x_min":0,"x_max":0,"o":""}}}
